<?xml version="1.0" encoding="utf-8"?>
<!-- Generator: Adobe Illustrator 21.0.0, SVG Export Plug-In . SVG Version: 6.00 Build 0)  -->
<svg version="1.1" id="Layer_1" xmlns="http://www.w3.org/2000/svg" xmlns:xlink="http://www.w3.org/1999/xlink" x="0px" y="0px"
	 viewBox="0 0 456 155.6" style="enable-background:new 0 0 456 155.6;" xml:space="preserve">
<style type="text/css">
	.st0{fill:#10103E;}
	.st1{fill:#FCB116;}
</style>
<g>
	<path d="M0,149.4v-33.9h7.5v27.1h16.9v6.8H0z"/>
	<path d="M68.8,149.4l-3.1-7.6H51.4l-3.1,7.6h-7.6l14.5-34.2h6.9l14.5,34.2H68.8z M58.6,124.2l-4.5,11h9L58.6,124.2z"/>
	<path d="M94.1,155.6v-44.9h5.8v44.9H94.1z"/>
	<path d="M130.6,122.2v7.2h16.2v6.8h-16.2v13.1h-7.5v-33.9h25.8v6.8H130.6z"/>
	<path d="M171,149.4v-33.9h7.5v33.9H171z"/>
	<path d="M220,122.3v27h-7.5v-27h-10.3v-6.9h28.1v6.9H220z"/>
	<path d="M273.7,149.4l-16.4-21.6v21.6h-7.4v-33.9h6.9l15.9,20.9v-20.9h7.4v33.9H273.7z"/>
	<path d="M304.9,149.4v-33.9h25.6v6.6h-18.2v6.9h16v6.6h-16v7.1h18.4v6.6H304.9z"/>
	<path d="M369.1,149.9c-5.1,0-10.3-1.8-14.4-5.4l4.4-5.3c3.1,2.5,6.3,4.1,10.1,4.1c3.1,0,4.9-1.2,4.9-3.2V140c0-1.9-1.2-2.9-6.8-4.3
		c-6.8-1.7-11.2-3.6-11.2-10.4v-0.1c0-6.2,4.9-10.2,11.9-10.2c4.9,0,9.2,1.6,12.6,4.3l-3.9,5.6c-3-2.1-6-3.3-8.8-3.3
		c-2.9,0-4.4,1.3-4.4,3v0.1c0,2.2,1.5,3,7.3,4.5c6.9,1.8,10.8,4.3,10.8,10.2v0.1C381.6,146.1,376.4,149.9,369.1,149.9z"/>
	<path d="M422.2,149.9c-5.1,0-10.3-1.8-14.4-5.4l4.4-5.3c3.1,2.5,6.3,4.1,10.1,4.1c3.1,0,4.9-1.2,4.9-3.2V140c0-1.9-1.2-2.9-6.8-4.3
		c-6.8-1.7-11.2-3.6-11.2-10.4v-0.1c0-6.2,4.9-10.2,11.9-10.2c4.9,0,9.2,1.6,12.6,4.3l-3.9,5.6c-3-2.1-6-3.3-8.8-3.3
		c-2.9,0-4.4,1.3-4.4,3v0.1c0,2.2,1.5,3,7.3,4.5c6.9,1.8,10.8,4.3,10.8,10.2v0.1C434.7,146.1,429.5,149.9,422.2,149.9z"/>
	<path d="M450.9,151.6c-2.8,0-5.1-2.3-5.1-5.1c0-2.8,2.2-5.1,5.1-5.1c2.8,0,5.1,2.3,5.1,5.1C456,149.3,453.7,151.6,450.9,151.6z
		 M450.9,142c-2.6,0-4.5,2-4.5,4.5c0,2.5,1.9,4.5,4.5,4.5c2.6,0,4.5-2,4.5-4.5C455.4,144,453.5,142,450.9,142z M452.2,147.1l1.3,1.9
		h-1.4l-1.1-1.7H450v1.7h-1.2v-5.4h2.4c1.3,0,2.1,0.7,2.1,1.8C453.3,146.3,452.8,146.9,452.2,147.1z M451.2,144.7H450v1.6h1.2
		c0.6,0,0.9-0.3,0.9-0.8C452.1,145,451.8,144.7,451.2,144.7z"/>
</g>
<path class="st0" d="M296.3,10.1c-47.9,14-82.6,28-115.4,48.7h52.7l-14.8,11.1h-98.1C199.6,22.2,296.3,10.1,296.3,10.1z"/>
<path class="st1" d="M209.6,51.4C315.4-8.4,415,0.5,415,0.5s-65.7,7.4-139.4,50.9H209.6z"/>
</svg>
